<svg width="18" height="19" viewBox="0 0 18 19" fill="none" xmlns="http://www.w3.org/2000/svg">
<g id="camera_3917300 1" clip-path="url(#clip0_502_7519)">
<path id="Vector" d="M13.2907 2.375L12.231 0.924667C12.0199 0.63793 11.7497 0.405663 11.441 0.245459C11.1322 0.0852557 10.793 0.00131658 10.449 0L7.55098 0C7.20695 0.00131658 6.86772 0.0852557 6.55898 0.245459C6.25024 0.405663 5.98008 0.63793 5.76898 0.924667L4.70923 2.375H13.2907Z" fill="#00574D"/>
<path id="Vector_2" d="M9 14.2493C10.6569 14.2493 12 12.8316 12 11.0827C12 9.33378 10.6569 7.91602 9 7.91602C7.34315 7.91602 6 9.33378 6 11.0827C6 12.8316 7.34315 14.2493 9 14.2493Z" fill="#00574D"/>
<path id="Vector_3" d="M14.25 3.95898H3.75C2.7558 3.96024 1.80267 4.37768 1.09966 5.11974C0.396661 5.8618 0.00119089 6.86789 0 7.91732L0 15.0423C0.00119089 16.0917 0.396661 17.0978 1.09966 17.8399C1.80267 18.582 2.7558 18.9994 3.75 19.0007H14.25C15.2442 18.9994 16.1973 18.582 16.9003 17.8399C17.6033 17.0978 17.9988 16.0917 18 15.0423V7.91732C17.9988 6.86789 17.6033 5.8618 16.9003 5.11974C16.1973 4.37768 15.2442 3.96024 14.25 3.95898ZM9 15.834C8.10998 15.834 7.23995 15.5554 6.49993 15.0335C5.75991 14.5115 5.18314 13.7697 4.84254 12.9017C4.50195 12.0338 4.41283 11.0787 4.58647 10.1573C4.7601 9.2359 5.18868 8.38953 5.81802 7.72523C6.44736 7.06093 7.24918 6.60853 8.12209 6.42525C8.99501 6.24198 9.89981 6.33604 10.7221 6.69556C11.5443 7.05507 12.2471 7.66389 12.7416 8.44503C13.2361 9.22616 13.5 10.1445 13.5 11.084C13.4988 12.3434 13.0243 13.5508 12.1807 14.4414C11.337 15.3319 10.1931 15.8327 9 15.834Z" fill="#00574D"/>
</g>
<defs>
<clipPath id="clip0_502_7519">
<rect width="18" height="19" fill="white"/>
</clipPath>
</defs>
</svg>
