<svg width="21" height="31" viewBox="0 0 21 31" fill="none" xmlns="http://www.w3.org/2000/svg">
<g id="Mask group">
<mask id="mask0_502_10880" style="mask-type:alpha" maskUnits="userSpaceOnUse" x="0" y="0" width="20" height="30">
<rect id="Rectangle 2642" x="0.672363" width="19.3767" height="29.6134" rx="9.68834" transform="rotate(1.30103 0.672363 0)" fill="#D9D9D9"/>
</mask>
<g mask="url(#mask0_502_10880)">
<path id="Vector" d="M17.0062 14.1001C16.2802 12.8612 15.4538 11.6821 14.5351 10.5744C13.1613 8.7691 12.4442 6.56049 12.4994 4.30496C12.5033 4.24486 12.4903 4.18485 12.4619 4.13152C12.4335 4.07818 12.3907 4.03359 12.3383 4.00262C12.2859 3.97165 12.2258 3.95552 12.1648 3.95596C12.1037 3.95641 12.0439 3.97343 11.992 4.00516C10.3527 5.11495 9.07699 6.67152 8.32063 8.48482C7.52328 10.4199 7.3482 12.5501 7.81904 14.5873C7.82709 14.6112 7.8273 14.6369 7.81964 14.6609C7.81198 14.6848 7.79683 14.7058 7.77637 14.7207C7.75591 14.7357 7.73122 14.7439 7.70574 14.7442C7.68026 14.7445 7.65529 14.7368 7.63447 14.7223C6.38754 13.9376 5.32763 12.8961 4.52752 11.6694C4.50116 11.6281 4.46574 11.593 4.42393 11.5669C4.38212 11.5408 4.33496 11.5242 4.28582 11.5183C4.23668 11.5124 4.18685 11.5174 4.13993 11.5329C4.09302 11.5485 4.05022 11.5741 4.01465 11.608C3.44035 12.1905 2.95033 12.8485 2.55852 13.5632C2.14492 14.3951 1.87581 15.2895 1.76234 16.2093C1.50012 18.0505 1.83516 19.9267 2.71955 21.5696C3.42533 22.8428 4.47081 23.9017 5.74284 24.6315C7.01488 25.3613 8.46499 25.7343 9.9361 25.71C11.6824 25.6215 13.3479 24.9594 14.6676 23.8292C15.9881 22.7111 16.9413 21.2309 17.4061 19.5768C17.5828 18.9298 17.6858 18.2652 17.7133 17.5956C17.7625 16.3917 17.5202 15.1935 17.0062 14.1001ZM12.2667 21.2098C12.2009 21.6105 12.0469 21.992 11.8156 22.3277C11.5843 22.6634 11.2814 22.9452 10.9279 23.1531C10.5744 23.3611 10.179 23.4902 9.76937 23.5315C9.35978 23.5728 8.94592 23.5252 8.55683 23.3921C8.1454 23.2533 7.77295 23.0207 7.46979 22.7132C7.16664 22.4058 6.94138 22.0322 6.81227 21.6228C6.66942 21.1831 6.64805 20.714 6.75045 20.2637C6.85285 19.8134 7.07526 19.3983 7.39475 19.0612C7.41643 19.0418 7.44238 19.0275 7.47053 19.0196C7.49868 19.0116 7.52832 19.0101 7.55717 19.0152C7.94057 19.1193 8.329 19.2045 8.72104 19.2703C8.65398 19.0165 8.62262 18.7549 8.62779 18.4927C8.62073 18.3635 8.62367 18.234 8.63659 18.1052C8.70831 17.6913 8.87617 17.2994 9.12702 16.9602C9.37787 16.621 9.70493 16.3436 10.0826 16.1498C10.1025 16.1406 10.1241 16.1359 10.146 16.1357C10.1679 16.1356 10.1896 16.1402 10.2095 16.1492C10.2294 16.1581 10.2471 16.1713 10.2614 16.1876C10.2757 16.204 10.2862 16.2233 10.2922 16.244C10.47 16.9177 10.7366 17.5655 11.0854 18.1708C11.2342 18.4597 11.4067 18.7363 11.6011 18.9977L11.7773 19.2303C12.0872 19.6924 12.2439 20.2379 12.2258 20.7913C12.2518 20.9294 12.2655 21.0694 12.2667 21.2098Z" fill="#FC9230"/>
</g>
</g>
</svg>
