<svg width="25" height="19" viewBox="0 0 25 19" fill="none" xmlns="http://www.w3.org/2000/svg">
<g id="Frame" clip-path="url(#clip0_502_9454)">
<path id="Vector" d="M3.74205 13.7677H21.2314C21.2977 13.7677 21.3632 13.7806 21.4244 13.8057C21.4856 13.8308 21.5412 13.8676 21.588 13.914C21.6348 13.9604 21.672 14.0154 21.6973 14.076C21.7226 14.1366 21.7357 14.2016 21.7357 14.2672V16.9927C21.7357 17.525 21.5222 18.0355 21.1423 18.4119C20.7624 18.7882 20.2471 18.9997 19.7099 18.9997H5.25479C4.71751 18.9997 4.20223 18.7882 3.82231 18.4119C3.4424 18.0355 3.22896 17.525 3.22896 16.9927V14.276C3.22776 14.2089 3.24021 14.1423 3.26558 14.08C3.29094 14.0178 3.32869 13.9613 3.37657 13.9139C3.42446 13.8665 3.4815 13.8291 3.54429 13.8039C3.60709 13.7788 3.67434 13.7665 3.74205 13.7677Z" fill="#0028FF"/>
<path id="Vector_2" d="M24.885 8.39583L23.2572 5.13568C23.1412 4.89702 22.9589 4.69605 22.7317 4.55636C22.5045 4.41666 22.2418 4.34401 21.9745 4.34692C20.3555 4.34762 18.7526 4.02886 17.2594 3.40921C15.7662 2.79948 14.4078 1.90633 13.2608 0.780055C12.8345 0.357803 12.1477 0.357803 11.7215 0.780055C9.41298 3.06894 6.28268 4.3579 3.01658 4.36446C2.74942 4.3626 2.48722 4.43569 2.26023 4.57527C2.03324 4.71484 1.85077 4.9152 1.73389 5.1532L0.11498 8.41335C0.0124702 8.62158 -0.0229748 8.85599 0.0134171 9.08484C0.0498091 9.31369 0.156264 9.52594 0.318431 9.69286L2.08772 11.4982C2.20407 11.6128 2.34211 11.7035 2.49392 11.7652C2.64572 11.8268 2.8083 11.8582 2.97236 11.8575H22.0453C22.3762 11.857 22.6938 11.728 22.9299 11.4982L24.6992 9.69286C24.8611 9.52187 24.9658 9.30557 24.9991 9.07345C25.0323 8.84132 24.9925 8.60469 24.885 8.39583ZM12.5 9.57018C11.1996 9.57018 10.1468 7.69471 10.1468 6.52036C10.1271 6.20279 10.1733 5.88458 10.2824 5.58535C10.3916 5.28611 10.5614 5.01217 10.7814 4.7804C11.0014 4.54863 11.267 4.36394 11.5618 4.23769C11.8566 4.11144 12.1744 4.0463 12.4956 4.0463C12.8167 4.0463 13.1345 4.11144 13.4293 4.23769C13.7241 4.36394 13.9897 4.54863 14.2097 4.7804C14.4297 5.01217 14.5995 5.28611 14.7087 5.58535C14.8178 5.88458 14.8639 6.20279 14.8442 6.52036C14.8442 7.69471 13.7916 9.57018 12.5 9.57018Z" fill="#0028FF"/>
<path id="Vector_3" d="M13.3228 6.72117C13.3228 7.13307 12.9512 7.79035 12.5001 7.79035C12.0489 7.79035 11.6685 7.13307 11.6685 6.72117C11.6565 6.60644 11.6689 6.49049 11.705 6.38083C11.7411 6.27118 11.8001 6.17026 11.8781 6.0846C11.9561 5.99895 12.0513 5.93046 12.1577 5.88359C12.2641 5.83672 12.3792 5.8125 12.4956 5.8125C12.6121 5.8125 12.7272 5.83672 12.8336 5.88359C12.94 5.93046 13.0352 5.99895 13.1132 6.0846C13.1911 6.17026 13.2501 6.27118 13.2862 6.38083C13.3223 6.49049 13.3348 6.60644 13.3228 6.72117Z" fill="#0028FF"/>
</g>
<defs>
<clipPath id="clip0_502_9454">
<rect width="25" height="19" fill="white"/>
</clipPath>
</defs>
</svg>
